<mxfile host="app.diagrams.net" modified="2024-06-17T20:26:09.224Z" agent="Mozilla/5.0 (X11; Ubuntu; Linux x86_64; rv:127.0) Gecko/20100101 Firefox/127.0" version="24.5.5" etag="mFjIhoepxoa8bfN5vrou" type="github">
  <diagram name="PÃ¡gina-1" id="_2XfQufIpG3PzdlCPVNX">
    <mxGraphModel>
      <root>
        <mxCell id="0" />
        <mxCell id="1" parent="0" />
      </root>
    </mxGraphModel>
  </diagram>
</mxfile>
